  0
SECTION
  2
ENTITIES
  0
LINE
  8
0
 10
0.0
 20
0.0
 30
0.0
 11
1000.0
 21
1000.0
 31
0.0
  0
POLYLINE
  8
0
 66
     1
 10
0.0
 20
0.0
 30
0.0
 70
     0
  0
VERTEX
  8
0
 10
0.0
 20
0.0
 30
0.0
  0
VERTEX
  8
0
 10
200.0
 20
200.0
 30
0.0
  0
VERTEX
  8
0
 10
300.0
 20
0.0
 30
0.0
  0
VERTEX
  8
0
 10
400.0
 20
200.0
 30
0.0
  0
VERTEX
  8
0
 10
500.0
 20
0.0
 30
0.0
  0
SEQEND
  8
0
  0
POLYLINE
  8
0
 66
     1
 10
0.0
 20
0.0
 30
0.0
 70
     1
  0
VERTEX
  8
0
 10
0.0
 20
0.0
 30
0.0
  0
VERTEX
  8
0
 10
0.0
 20
1000.0
 30
0.0
  0
VERTEX
  8
0
 10
1000.0
 20
1000.0
 30
0.0
  0
VERTEX
  8
0
 10
1000.0
 20
0.0
 30
0.0
  0
SEQEND
  8
0
  0
POLYLINE
  8
0
 66
     1
 10
0.0
 20
0.0
 30
0.0
 70
     1
  0
VERTEX
  8
0
 10
1200.0
 20
1000.0
 30
0.0
  0
VERTEX
  8
0
 10
1200.0
 20
1400.0
 30
0.0
  0
VERTEX
  8
0
 10
1600.0
 20
1400.0
 30
0.0
  0
VERTEX
  8
0
 10
1600.0
 20
1000.0
 30
0.0
  0
SEQEND
  8
0
  0
POLYLINE
  8
0
 66
     1
 10
0.0
 20
0.0
 30
0.0
 70
     1
  0
VERTEX
  8
0
 10
1600.0
 20
1000.0
 30
0.0
  0
VERTEX
  8
0
 10
1600.0
 20
1500.0
 30
0.0
  0
VERTEX
  8
0
 10
2100.0
 20
1500.0
 30
0.0
  0
VERTEX
  8
0
 10
2100.0
 20
1000.0
 30
0.0
  0
SEQEND
  8
0
  0
POLYLINE
  8
0
 66
     1
 10
0.0
 20
0.0
 30
0.0
 70
     1
  0
VERTEX
  8
0
 10
2100.0
 20
1000.0
 30
0.0
  0
VERTEX
  8
0
 10
2100.0
 20
1600.0
 30
0.0
  0
VERTEX
  8
0
 10
2700.0
 20
1600.0
 30
0.0
  0
VERTEX
  8
0
 10
2700.0
 20
1000.0
 30
0.0
  0
SEQEND
  8
0
  0
POLYLINE
  8
0
 66
     1
 10
0.0
 20
0.0
 30
0.0
 70
     1
  0
VERTEX
  8
0
 10
1100.0
 20
1700.0
 30
0.0
  0
VERTEX
  8
0
 10
1100.0
 20
1900.0
 30
0.0
  0
VERTEX
  8
0
 10
1300.0
 20
1900.0
 30
0.0
  0
VERTEX
  8
0
 10
1300.0
 20
1700.0
 30
0.0
  0
SEQEND
  8
0
  0
POLYLINE
  8
0
 66
     1
 10
0.0
 20
0.0
 30
0.0
 70
     1
  0
VERTEX
  8
0
 10
1400.0
 20
1600.0
 30
0.0
  0
VERTEX
  8
0
 10
1400.0
 20
1900.0
 30
0.0
  0
VERTEX
  8
0
 10
1700.0
 20
1900.0
 30
0.0
  0
VERTEX
  8
0
 10
1700.0
 20
1600.0
 30
0.0
  0
SEQEND
  8
0
  0
POLYLINE
  8
0
 66
     1
 10
0.0
 20
0.0
 30
0.0
 70
     1
  0
VERTEX
  8
0
 10
1000.0
 20
2000.0
 30
0.0
  0
VERTEX
  8
0
 10
1000.0
 20
2100.0
 30
0.0
  0
VERTEX
  8
0
 10
1100.0
 20
2100.0
 30
0.0
  0
VERTEX
  8
0
 10
1100.0
 20
2000.0
 30
0.0
  0
SEQEND
  8
0
  0
ENDSEC
  0
EOF